<svg xmlns="http://www.w3.org/2000/svg" fill="none" viewBox="110 110 800 800">
  <path
    fill="#000d"
    fill-rule="evenodd"
    d="m201 259-8 24v230l-32 1-18 7-9 20v176l11 20 17 7 22-1-1-32 10-29 24-25 33-13 43 5 29 21 17 30 3 44h120l1-36 11-27 23-24 32-13 31 1 31 15 25 33 5 43h249l13-9 4-22-16-17-186-2V285l-8-13-55-3-14 15-1 345-26-18-1-98-91-241-15-23-27-13H235l-24 10Zm60 39 171-2 6 5 89 225-2 74h-95l-6-8v-30l-7-23-10-14-22-10-127-3Z"
  />
  <circle cx="261.9" cy="723.5" r="65.3" fill="#000d" />
  <circle cx="542.1" cy="723.5" r="65" fill="#000d" />
  <rect
    width="149"
    height="151"
    x="709"
    y="510"
    fill="#e20093"
    rx="18"
    ry="18"
  />
</svg>
